<svg width="1920" height="1080" viewBox="0 0 1920 1080" fill="none" xmlns="http://www.w3.org/2000/svg">
<rect width="1920" height="1080" rx="4" fill="#D9D9D9"/>
<rect width="1920" height="1080" rx="4" fill="#FAE100"/>
<path d="M-102 1105.5L78.75 1209.86L78.75 1001.14L-102 1105.5Z" fill="#107425"/>
<path d="M78 110.5L-102.75 214.856L-102.75 6.14394L78 110.5Z" fill="#0154B5"/>
<path d="M259 538.5L78.25 642.856L78.25 434.144L259 538.5Z" fill="#0154B5"/>
<path d="M259 330.5L78.25 434.856L78.25 226.144L259 330.5Z" fill="#C10123"/>
<path d="M259 954.5L78.25 1058.86L78.25 850.144L259 954.5Z" fill="#0272F6"/>
<path d="M79 642.5L-101.75 746.856L-101.75 538.144L79 642.5Z" fill="#C10123"/>
<path d="M79 434.5L-101.75 538.856L-101.75 330.144L79 434.5Z" fill="#13A833"/>
<path d="M78 850.5L-102.75 954.856L-102.75 746.144L78 850.5Z" fill="#13A833"/>
<path d="M-102 746.5L78.75 850.856L78.75 642.144L-102 746.5Z" fill="#107425"/>
<path d="M-102 6.50002L78.75 110.856L78.75 -97.8561L-102 6.50002Z" fill="#F5022E"/>
<path d="M79 850.5L259.75 954.856L259.75 746.144L79 850.5Z" fill="#F5022E"/>
<path d="M-102.5 214.5L78.25 318.856L78.25 110.144L-102.5 214.5Z" fill="#0272F6"/>
<path d="M79 642.5L259.75 746.856L259.75 538.144L79 642.5Z" fill="#0272F6"/>
<path d="M79 110.5L259.75 214.856L259.75 6.14393L79 110.5Z" fill="#107425"/>
</svg>
